# xmcd
#
# Track frame offsets:
#	150
#	12550
#	23485
#	32197
#	43087
#	56220
#	69137
#	78927
#	91460
#	103715
#	116415
#	131302
#	147770
#	162542
#
# Disc length: 2323 seconds
#
# Revision: 1
# Processed by: cddbd v1.4PL0 Copyright (c) Steve Scherf et al.
# Submitted via: audiograbber 1.81.03
#
DISCID=b409110e
DTITLE=Various Artist - Country Greatest 9
DYEAR=1993
DGENRE=Country
TTITLE0=Lynn Anderson - Stand by your man
TTITLE1=Roger Miller - King of the road
TTITLE2=Johnny Cash - Katy too
TTITLE3=The Everly Brothers - Till I kissed you
TTITLE4=Ray Stevens - Misty
TTITLE5=Lucille Starr - The french song
TTITLE6=George Jones @ Gene Pitney - I`ve got five dollars and it`s saturday ni
TTITLE6=ght
TTITLE7=B. J. Thomas - Hooked on a feeling
TTITLE8=Hoyt Axton - We could`ve been sweethearts
TTITLE9=Johnny Tillotson - It keeps right on a hurtin`
TTITLE10=Frankie Laine - Jezebel
TTITLE11=Ricky Nelson - Garden Party
TTITLE12=Glen Campbell - Rhinestone cowboy
TTITLE13=Kingston Trio - Tom Dooley
EXTD=
EXTT0=
EXTT1=
EXTT2=
EXTT3=
EXTT4=
EXTT5=
EXTT6=
EXTT7=
EXTT8=
EXTT9=
EXTT10=
EXTT11=
EXTT12=
EXTT13=
PLAYORDER=
